<?xml version="1.0" encoding="UTF-8" standalone="no"?>
<!DOCTYPE svg PUBLIC "-//W3C//DTD SVG 1.1//EN"
 "http://www.w3.org/Graphics/SVG/1.1/DTD/svg11.dtd">
<!-- Generated by graphviz version 2.43.0 (0)
 -->
<!-- Title: wordcount02 Pages: 1 -->
<svg width="100%" height="100%" xmlns="http://www.w3.org/2000/svg" xmlns:xlink="http://www.w3.org/1999/xlink">
<script type="text/ecmascript"><![CDATA[
/**
 *  SVGPan library 1.2.2
 * ======================
 *
 * Given an unique existing element with id "viewport" (or when missing, the
 * first g-element), including the library into any SVG adds the following
 * capabilities:
 *
 *  - Mouse panning
 *  - Mouse zooming (using the wheel)
 *  - Object dragging
 *
 * You can configure the behaviour of the pan/zoom/drag with the variables
 * listed in the CONFIGURATION section of this file.
 *
 * Known issues:
 *
 *  - Zooming (while panning) on Safari has still some issues
 *
 * Releases:
 *
 * 1.2.2, Tue Aug 30 17:21:56 CEST 2011, Andrea Leofreddi
 *	- Fixed viewBox on root tag (#7)
 *	- Improved zoom speed (#2)
 *
 * 1.2.1, Mon Jul  4 00:33:18 CEST 2011, Andrea Leofreddi
 *	- Fixed a regression with mouse wheel (now working on Firefox 5)
 *	- Working with viewBox attribute (#4)
 *	- Added "use strict;" and fixed resulting warnings (#5)
 *	- Added configuration variables, dragging is disabled by default (#3)
 *
 * 1.2, Sat Mar 20 08:42:50 GMT 2010, Zeng Xiaohui
 *	Fixed a bug with browser mouse handler interaction
 *
 * 1.1, Wed Feb  3 17:39:33 GMT 2010, Zeng Xiaohui
 *	Updated the zoom code to support the mouse wheel on Safari/Chrome
 *
 * 1.0, Andrea Leofreddi
 *	First release
 *
 * This code is licensed under the following BSD license:
 *
 * Copyright 2009-2017 Andrea Leofreddi <a.leofreddi@vleo.net>. All rights reserved.
 *
 * Redistribution and use in source and binary forms, with or without modification, are
 * permitted provided that the following conditions are met:
 *
 *    1. Redistributions of source code must retain the above copyright
 *       notice, this list of conditions and the following disclaimer.
 *    2. Redistributions in binary form must reproduce the above copyright
 *       notice, this list of conditions and the following disclaimer in the
 *       documentation and/or other materials provided with the distribution.
 *    3. Neither the name of the copyright holder nor the names of its
 *       contributors may be used to endorse or promote products derived from
 *       this software without specific prior written permission.
 *
 * THIS SOFTWARE IS PROVIDED BY COPYRIGHT HOLDERS AND CONTRIBUTORS ''AS IS'' AND ANY EXPRESS
 * OR IMPLIED WARRANTIES, INCLUDING, BUT NOT LIMITED TO, THE IMPLIED WARRANTIES OF MERCHANTABILITY
 * AND FITNESS FOR A PARTICULAR PURPOSE ARE DISCLAIMED. IN NO EVENT SHALL COPYRIGHT HOLDERS OR
 * CONTRIBUTORS BE LIABLE FOR ANY DIRECT, INDIRECT, INCIDENTAL, SPECIAL, EXEMPLARY, OR
 * CONSEQUENTIAL DAMAGES (INCLUDING, BUT NOT LIMITED TO, PROCUREMENT OF SUBSTITUTE GOODS OR
 * SERVICES; LOSS OF USE, DATA, OR PROFITS; OR BUSINESS INTERRUPTION) HOWEVER CAUSED AND ON
 * ANY THEORY OF LIABILITY, WHETHER IN CONTRACT, STRICT LIABILITY, OR TORT (INCLUDING
 * NEGLIGENCE OR OTHERWISE) ARISING IN ANY WAY OUT OF THE USE OF THIS SOFTWARE, EVEN IF
 * ADVISED OF THE POSSIBILITY OF SUCH DAMAGE.
 *
 * The views and conclusions contained in the software and documentation are those of the
 * authors and should not be interpreted as representing official policies, either expressed
 * or implied, of Andrea Leofreddi.
 */

"use strict";

/// CONFIGURATION
/// ====>

var enablePan = 1; // 1 or 0: enable or disable panning (default enabled)
var enableZoom = 1; // 1 or 0: enable or disable zooming (default enabled)
var enableDrag = 0; // 1 or 0: enable or disable dragging (default disabled)
var zoomScale = 0.2; // Zoom sensitivity

/// <====
/// END OF CONFIGURATION

var root = document.documentElement;

var state = 'none', svgRoot = null, stateTarget, stateOrigin, stateTf;

setupHandlers(root);

/**
 * Register handlers
 */
function setupHandlers(root){
	setAttributes(root, {
		"onmouseup" : "handleMouseUp(evt)",
		"onmousedown" : "handleMouseDown(evt)",
		"onmousemove" : "handleMouseMove(evt)",
		//"onmouseout" : "handleMouseUp(evt)", // Decomment this to stop the pan functionality when dragging out of the SVG element
	});

	if(navigator.userAgent.toLowerCase().indexOf('webkit') >= 0)
		window.addEventListener('mousewheel', handleMouseWheel, false); // Chrome/Safari
	else
		window.addEventListener('DOMMouseScroll', handleMouseWheel, false); // Others
}

/**
 * Retrieves the root element for SVG manipulation. The element is then cached into the svgRoot global variable.
 */
function getRoot(root) {
	if(svgRoot == null) {
		var r = root.getElementById("viewport") ? root.getElementById("viewport") : root.documentElement, t = r;

		while(t != root) {
			if(t.getAttribute("viewBox")) {
				setCTM(r, t.getCTM());

				t.removeAttribute("viewBox");
			}

			t = t.parentNode;
		}

		svgRoot = r;
	}

	return svgRoot;
}

/**
 * Instance an SVGPoint object with given event coordinates.
 */
function getEventPoint(evt) {
	var p = root.createSVGPoint();

	p.x = evt.clientX;
	p.y = evt.clientY;

	return p;
}

/**
 * Sets the current transform matrix of an element.
 */
function setCTM(element, matrix) {
	var s = "matrix(" + matrix.a + "," + matrix.b + "," + matrix.c + "," + matrix.d + "," + matrix.e + "," + matrix.f + ")";

	element.setAttribute("transform", s);
}

/**
 * Dumps a matrix to a string (useful for debug).
 */
function dumpMatrix(matrix) {
	var s = "[ " + matrix.a + ", " + matrix.c + ", " + matrix.e + "\n  " + matrix.b + ", " + matrix.d + ", " + matrix.f + "\n  0, 0, 1 ]";

	return s;
}

/**
 * Sets attributes of an element.
 */
function setAttributes(element, attributes){
	for (var i in attributes)
		element.setAttributeNS(null, i, attributes[i]);
}

/**
 * Handle mouse wheel event.
 */
function handleMouseWheel(evt) {
	if(!enableZoom)
		return;

	if(evt.preventDefault)
		evt.preventDefault();

	evt.returnValue = false;

	var svgDoc = evt.target.ownerDocument;

	var delta;

	if(evt.wheelDelta)
		delta = evt.wheelDelta / 360; // Chrome/Safari
	else
		delta = evt.detail / -9; // Mozilla

	var z = Math.pow(1 + zoomScale, delta);

	var g = getRoot(svgDoc);
	
	var p = getEventPoint(evt);

	p = p.matrixTransform(g.getCTM().inverse());

	// Compute new scale matrix in current mouse position
	var k = root.createSVGMatrix().translate(p.x, p.y).scale(z).translate(-p.x, -p.y);

        setCTM(g, g.getCTM().multiply(k));

	if(typeof(stateTf) == "undefined")
		stateTf = g.getCTM().inverse();

	stateTf = stateTf.multiply(k.inverse());
}

/**
 * Handle mouse move event.
 */
function handleMouseMove(evt) {
	if(evt.preventDefault)
		evt.preventDefault();

	evt.returnValue = false;

	var svgDoc = evt.target.ownerDocument;

	var g = getRoot(svgDoc);

	if(state == 'pan' && enablePan) {
		// Pan mode
		var p = getEventPoint(evt).matrixTransform(stateTf);

		setCTM(g, stateTf.inverse().translate(p.x - stateOrigin.x, p.y - stateOrigin.y));
	} else if(state == 'drag' && enableDrag) {
		// Drag mode
		var p = getEventPoint(evt).matrixTransform(g.getCTM().inverse());

		setCTM(stateTarget, root.createSVGMatrix().translate(p.x - stateOrigin.x, p.y - stateOrigin.y).multiply(g.getCTM().inverse()).multiply(stateTarget.getCTM()));

		stateOrigin = p;
	}
}

/**
 * Handle click event.
 */
function handleMouseDown(evt) {
	if(evt.preventDefault)
		evt.preventDefault();

	evt.returnValue = false;

	var svgDoc = evt.target.ownerDocument;

	var g = getRoot(svgDoc);

	if(
		evt.target.tagName == "svg"
		|| !enableDrag // Pan anyway when drag is disabled and the user clicked on an element
	) {
		// Pan mode
		state = 'pan';

		stateTf = g.getCTM().inverse();

		stateOrigin = getEventPoint(evt).matrixTransform(stateTf);
	} else {
		// Drag mode
		state = 'drag';

		stateTarget = evt.target;

		stateTf = g.getCTM().inverse();

		stateOrigin = getEventPoint(evt).matrixTransform(stateTf);
	}
}

/**
 * Handle mouse button release event.
 */
function handleMouseUp(evt) {
	if(evt.preventDefault)
		evt.preventDefault();

	evt.returnValue = false;

	var svgDoc = evt.target.ownerDocument;

	if(state == 'pan' || state == 'drag') {
		// Quit pan mode
		state = '';
	}
}
]]></script><g id="viewport" transform="scale(0.5,0.5) translate(0,0)"><g id="graph0" class="graph" transform="scale(1 1) rotate(0) translate(4 1335)">
<title>wordcount02</title>
<polygon fill="white" stroke="transparent" points="-4,4 -4,-1335 1132.5,-1335 1132.5,4 -4,4"/>
<g id="clust1" class="cluster">
<title>cluster_L</title>
<polygon fill="none" stroke="black" points="8,-1190 8,-1323 562,-1323 562,-1190 8,-1190"/>
</g>
<!-- File: wordcount02 -->
<g id="node1" class="node">
<title>File: wordcount02</title>
<g id="a_node1"><a xlink:title="wordcount02">
<polygon fill="#f8f8f8" stroke="black" points="553.5,-1315 16.5,-1315 16.5,-1198 553.5,-1198 553.5,-1315"/>
<text text-anchor="start" x="24.5" y="-1298.2" font-family="Times,serif" font-size="16.00">File: wordcount02</text>
<text text-anchor="start" x="24.5" y="-1280.2" font-family="Times,serif" font-size="16.00">Type: inuse_space</text>
<text text-anchor="start" x="24.5" y="-1262.2" font-family="Times,serif" font-size="16.00">Time: Mar 8, 2023 at 11:32pm (UTC)</text>
<text text-anchor="start" x="24.5" y="-1244.2" font-family="Times,serif" font-size="16.00">Showing nodes accounting for 31.48kB, 100% of 31.48kB total</text>
<text text-anchor="start" x="24.5" y="-1207.2" font-family="Times,serif" font-size="16.00">See https://git.io/JfYMW for how to read the graph</text>
</a>
</g>
</g>
<!-- N1 -->
<g id="node1" class="node">
<title>N1</title>
<g id="a_node1"><a xlink:title="runtime.allocm (17.77kB)">
<polygon fill="#edd9d5" stroke="#b21c00" points="753.5,-485 490.5,-485 490.5,-373 753.5,-373 753.5,-485"/>
<text text-anchor="middle" x="622" y="-461.8" font-family="Times,serif" font-size="24.00">runtime</text>
<text text-anchor="middle" x="622" y="-435.8" font-family="Times,serif" font-size="24.00">allocm</text>
<text text-anchor="middle" x="622" y="-409.8" font-family="Times,serif" font-size="24.00">13.56kB (43.08%)</text>
<text text-anchor="middle" x="622" y="-383.8" font-family="Times,serif" font-size="24.00">of 17.77kB (56.44%)</text>
</a>
</g>
</g>
<!-- NN1_0 -->
<g id="NN1_0" class="node">
<title>NN1_0</title>
<g id="a_NN1_0"><a xlink:title="13.56kB">
<polygon fill="#f8f8f8" stroke="black" points="649,-279 599,-279 595,-275 595,-243 645,-243 649,-247 649,-279"/>
<polyline fill="none" stroke="black" points="645,-275 595,-275 "/>
<polyline fill="none" stroke="black" points="645,-275 645,-243 "/>
<polyline fill="none" stroke="black" points="645,-275 649,-279 "/>
<text text-anchor="middle" x="622" y="-259.1" font-family="Times,serif" font-size="8.00">1kB</text>
</a>
</g>
</g>
<!-- N1&#45;&gt;NN1_0 -->
<g id="edge1" class="edge">
<title>N1&#45;&gt;NN1_0</title>
<g id="a_edge1"><a xlink:title="13.56kB">
<path fill="none" stroke="black" d="M622,-372.72C622,-344.68 622,-311.87 622,-289.28"/>
<polygon fill="black" stroke="black" points="625.5,-289.08 622,-279.08 618.5,-289.08 625.5,-289.08"/>
</a>
</g>
<g id="a_edge1&#45;label"><a xlink:title="13.56kB">
<text text-anchor="middle" x="654" y="-336.3" font-family="Times,serif" font-size="14.00"> 13.56kB</text>
</a>
</g>
</g>
<!-- N2 -->
<g id="node2" class="node">
<title>N2</title>
<g id="a_node2"><a xlink:title="runtime.malg (8.41kB)">
<polygon fill="#edddd5" stroke="#b23a00" points="764.5,-164 567.5,-164 567.5,-87 764.5,-87 764.5,-164"/>
<text text-anchor="middle" x="666" y="-143.2" font-family="Times,serif" font-size="21.00">runtime</text>
<text text-anchor="middle" x="666" y="-120.2" font-family="Times,serif" font-size="21.00">malg</text>
<text text-anchor="middle" x="666" y="-97.2" font-family="Times,serif" font-size="21.00">8.41kB (26.72%)</text>
</a>
</g>
</g>
<!-- N1&#45;&gt;N2 -->
<g id="edge24" class="edge">
<title>N1&#45;&gt;N2</title>
<g id="a_edge24"><a xlink:title="runtime.allocm &#45;&gt; runtime.malg (4.21kB)">
<path fill="none" stroke="#b2713b" d="M677.86,-372.9C681.5,-367.18 684.65,-361.19 687,-355 709.63,-295.56 695.87,-221.4 682.3,-173.98"/>
<polygon fill="#b2713b" stroke="#b2713b" points="685.62,-172.88 679.42,-164.29 678.91,-174.87 685.62,-172.88"/>
</a>
</g>
<g id="a_edge24&#45;label"><a xlink:title="runtime.allocm &#45;&gt; runtime.malg (4.21kB)">
<text text-anchor="middle" x="726.5" y="-257.3" font-family="Times,serif" font-size="14.00"> 4.21kB</text>
</a>
</g>
</g>
<!-- NN2_0 -->
<g id="NN2_0" class="node">
<title>NN2_0</title>
<g id="a_NN2_0"><a xlink:title="8.41kB">
<polygon fill="#f8f8f8" stroke="black" points="693,-36 643,-36 639,-32 639,0 689,0 693,-4 693,-36"/>
<polyline fill="none" stroke="black" points="689,-32 639,-32 "/>
<polyline fill="none" stroke="black" points="689,-32 689,0 "/>
<polyline fill="none" stroke="black" points="689,-32 693,-36 "/>
<text text-anchor="middle" x="666" y="-16.1" font-family="Times,serif" font-size="8.00">416B</text>
</a>
</g>
</g>
<!-- N2&#45;&gt;NN2_0 -->
<g id="edge2" class="edge">
<title>N2&#45;&gt;NN2_0</title>
<g id="a_edge2"><a xlink:title="8.41kB">
<path fill="none" stroke="black" d="M666,-86.71C666,-73.36 666,-58.61 666,-46.3"/>
<polygon fill="black" stroke="black" points="669.5,-46.2 666,-36.2 662.5,-46.2 669.5,-46.2"/>
</a>
</g>
<g id="a_edge2&#45;label"><a xlink:title="8.41kB">
<text text-anchor="middle" x="693.5" y="-57.8" font-family="Times,serif" font-size="14.00"> 8.41kB</text>
</a>
</g>
</g>
<!-- N3 -->
<g id="node3" class="node">
<title>N3</title>
<g id="a_node3"><a xlink:title="runtime.schedule (17.77kB)">
<polygon fill="#edd9d5" stroke="#b21c00" points="675.5,-973 568.5,-973 568.5,-937 675.5,-937 675.5,-973"/>
<text text-anchor="middle" x="622" y="-962.1" font-family="Times,serif" font-size="8.00">runtime</text>
<text text-anchor="middle" x="622" y="-953.1" font-family="Times,serif" font-size="8.00">schedule</text>
<text text-anchor="middle" x="622" y="-944.1" font-family="Times,serif" font-size="8.00">0 of 17.77kB (56.44%)</text>
</a>
</g>
</g>
<!-- N27 -->
<g id="node27" class="node">
<title>N27</title>
<g id="a_node27"><a xlink:title="runtime.resetspinning (17.77kB)">
<polygon fill="#edd9d5" stroke="#b21c00" points="675.5,-871 568.5,-871 568.5,-835 675.5,-835 675.5,-871"/>
<text text-anchor="middle" x="622" y="-860.1" font-family="Times,serif" font-size="8.00">runtime</text>
<text text-anchor="middle" x="622" y="-851.1" font-family="Times,serif" font-size="8.00">resetspinning</text>
<text text-anchor="middle" x="622" y="-842.1" font-family="Times,serif" font-size="8.00">0 of 17.77kB (56.44%)</text>
</a>
</g>
</g>
<!-- N3&#45;&gt;N27 -->
<g id="edge7" class="edge">
<title>N3&#45;&gt;N27</title>
<g id="a_edge7"><a xlink:title="runtime.schedule &#45;&gt; runtime.resetspinning (17.77kB)">
<path fill="none" stroke="#b21c00" stroke-width="3" d="M622,-936.58C622,-921.38 622,-899.07 622,-881.46"/>
<polygon fill="#b21c00" stroke="#b21c00" stroke-width="3" points="625.5,-881.22 622,-871.22 618.5,-881.22 625.5,-881.22"/>
</a>
</g>
<g id="a_edge7&#45;label"><a xlink:title="runtime.schedule &#45;&gt; runtime.resetspinning (17.77kB)">
<text text-anchor="middle" x="654" y="-900.3" font-family="Times,serif" font-size="14.00"> 17.77kB</text>
</a>
</g>
</g>
<!-- N4 -->
<g id="node4" class="node">
<title>N4</title>
<g id="a_node4"><a xlink:title="regexp/syntax.(*compiler).inst (5.45kB)">
<polygon fill="#ede1d8" stroke="#b25717" points="951.5,-307 774.5,-307 774.5,-215 951.5,-215 951.5,-307"/>
<text text-anchor="middle" x="863" y="-287.8" font-family="Times,serif" font-size="19.00">syntax</text>
<text text-anchor="middle" x="863" y="-266.8" font-family="Times,serif" font-size="19.00">(*compiler)</text>
<text text-anchor="middle" x="863" y="-245.8" font-family="Times,serif" font-size="19.00">inst</text>
<text text-anchor="middle" x="863" y="-224.8" font-family="Times,serif" font-size="19.00">5.45kB (17.32%)</text>
</a>
</g>
</g>
<!-- NN4_0 -->
<g id="NN4_0" class="node">
<title>NN4_0</title>
<g id="a_NN4_0"><a xlink:title="5.45kB">
<polygon fill="#f8f8f8" stroke="black" points="890,-143.5 840,-143.5 836,-139.5 836,-107.5 886,-107.5 890,-111.5 890,-143.5"/>
<polyline fill="none" stroke="black" points="886,-139.5 836,-139.5 "/>
<polyline fill="none" stroke="black" points="886,-139.5 886,-107.5 "/>
<polyline fill="none" stroke="black" points="886,-139.5 890,-143.5 "/>
<text text-anchor="middle" x="863" y="-123.6" font-family="Times,serif" font-size="8.00">2.62kB</text>
</a>
</g>
</g>
<!-- N4&#45;&gt;NN4_0 -->
<g id="edge3" class="edge">
<title>N4&#45;&gt;NN4_0</title>
<g id="a_edge3"><a xlink:title="5.45kB">
<path fill="none" stroke="black" d="M863,-214.8C863,-194.51 863,-171.23 863,-153.68"/>
<polygon fill="black" stroke="black" points="866.5,-153.56 863,-143.56 859.5,-153.56 866.5,-153.56"/>
</a>
</g>
<g id="a_edge3&#45;label"><a xlink:title="5.45kB">
<text text-anchor="middle" x="890.5" y="-185.8" font-family="Times,serif" font-size="14.00"> 5.45kB</text>
</a>
</g>
</g>
<!-- N5 -->
<g id="node5" class="node">
<title>N5</title>
<g id="a_node5"><a xlink:title="runtime.main (9.51kB)">
<polygon fill="#eddcd5" stroke="#b23500" points="913.5,-1274.5 812.5,-1274.5 812.5,-1238.5 913.5,-1238.5 913.5,-1274.5"/>
<text text-anchor="middle" x="863" y="-1263.6" font-family="Times,serif" font-size="8.00">runtime</text>
<text text-anchor="middle" x="863" y="-1254.6" font-family="Times,serif" font-size="8.00">main</text>
<text text-anchor="middle" x="863" y="-1245.6" font-family="Times,serif" font-size="8.00">0 of 9.51kB (30.20%)</text>
</a>
</g>
</g>
<!-- N20 -->
<g id="node20" class="node">
<title>N20</title>
<g id="a_node20"><a xlink:title="runtime.doInit (9.51kB)">
<polygon fill="#eddcd5" stroke="#b23500" points="913.5,-1147 812.5,-1147 812.5,-1111 913.5,-1111 913.5,-1147"/>
<text text-anchor="middle" x="863" y="-1136.1" font-family="Times,serif" font-size="8.00">runtime</text>
<text text-anchor="middle" x="863" y="-1127.1" font-family="Times,serif" font-size="8.00">doInit</text>
<text text-anchor="middle" x="863" y="-1118.1" font-family="Times,serif" font-size="8.00">0 of 9.51kB (30.20%)</text>
</a>
</g>
</g>
<!-- N5&#45;&gt;N20 -->
<g id="edge14" class="edge">
<title>N5&#45;&gt;N20</title>
<g id="a_edge14"><a xlink:title="runtime.main &#45;&gt; runtime.doInit (9.51kB)">
<path fill="none" stroke="#b23500" stroke-width="2" d="M863,-1238.31C863,-1217.49 863,-1182.16 863,-1157.53"/>
<polygon fill="#b23500" stroke="#b23500" stroke-width="2" points="866.5,-1157.38 863,-1147.38 859.5,-1157.38 866.5,-1157.38"/>
</a>
</g>
<g id="a_edge14&#45;label"><a xlink:title="runtime.main &#45;&gt; runtime.doInit (9.51kB)">
<text text-anchor="middle" x="890.5" y="-1168.8" font-family="Times,serif" font-size="14.00"> 9.51kB</text>
</a>
</g>
</g>
<!-- N6 -->
<g id="node6" class="node">
<title>N6</title>
<g id="a_node6"><a xlink:title="regexp.compile (9.51kB)">
<polygon fill="#eddcd5" stroke="#b23500" points="913.5,-784 812.5,-784 812.5,-748 913.5,-748 913.5,-784"/>
<text text-anchor="middle" x="863" y="-773.1" font-family="Times,serif" font-size="8.00">regexp</text>
<text text-anchor="middle" x="863" y="-764.1" font-family="Times,serif" font-size="8.00">compile</text>
<text text-anchor="middle" x="863" y="-755.1" font-family="Times,serif" font-size="8.00">0 of 9.51kB (30.20%)</text>
</a>
</g>
</g>
<!-- N17 -->
<g id="node17" class="node">
<title>N17</title>
<g id="a_node17"><a xlink:title="regexp/syntax.Compile (5.45kB)">
<polygon fill="#ede1d8" stroke="#b25717" points="913.5,-682 812.5,-682 812.5,-646 913.5,-646 913.5,-682"/>
<text text-anchor="middle" x="863" y="-671.1" font-family="Times,serif" font-size="8.00">syntax</text>
<text text-anchor="middle" x="863" y="-662.1" font-family="Times,serif" font-size="8.00">Compile</text>
<text text-anchor="middle" x="863" y="-653.1" font-family="Times,serif" font-size="8.00">0 of 5.45kB (17.32%)</text>
</a>
</g>
</g>
<!-- N6&#45;&gt;N17 -->
<g id="edge20" class="edge">
<title>N6&#45;&gt;N17</title>
<g id="a_edge20"><a xlink:title="regexp.compile &#45;&gt; regexp/syntax.Compile (5.45kB)">
<path fill="none" stroke="#b25717" d="M863,-747.58C863,-732.38 863,-710.07 863,-692.46"/>
<polygon fill="#b25717" stroke="#b25717" points="866.5,-692.22 863,-682.22 859.5,-692.22 866.5,-692.22"/>
</a>
</g>
<g id="a_edge20&#45;label"><a xlink:title="regexp.compile &#45;&gt; regexp/syntax.Compile (5.45kB)">
<text text-anchor="middle" x="890.5" y="-711.3" font-family="Times,serif" font-size="14.00"> 5.45kB</text>
</a>
</g>
</g>
<!-- N18 -->
<g id="node18" class="node">
<title>N18</title>
<g id="a_node18"><a xlink:title="regexp/syntax.Parse (4.05kB)">
<polygon fill="#ede4dd" stroke="#b2743f" points="1032.5,-682 931.5,-682 931.5,-646 1032.5,-646 1032.5,-682"/>
<text text-anchor="middle" x="982" y="-671.1" font-family="Times,serif" font-size="8.00">syntax</text>
<text text-anchor="middle" x="982" y="-662.1" font-family="Times,serif" font-size="8.00">Parse</text>
<text text-anchor="middle" x="982" y="-653.1" font-family="Times,serif" font-size="8.00">0 of 4.05kB (12.88%)</text>
</a>
</g>
</g>
<!-- N6&#45;&gt;N18 -->
<g id="edge28" class="edge">
<title>N6&#45;&gt;N18</title>
<g id="a_edge28"><a xlink:title="regexp.compile &#45;&gt; regexp/syntax.Parse (4.05kB)">
<path fill="none" stroke="#b2743f" d="M895.66,-747.9C904.55,-742.65 913.95,-736.52 922,-730 936.59,-718.19 950.93,-702.84 961.92,-690.02"/>
<polygon fill="#b2743f" stroke="#b2743f" points="964.89,-691.94 968.64,-682.03 959.53,-687.44 964.89,-691.94"/>
</a>
</g>
<g id="a_edge28&#45;label"><a xlink:title="regexp.compile &#45;&gt; regexp/syntax.Parse (4.05kB)">
<text text-anchor="middle" x="978.5" y="-718.8" font-family="Times,serif" font-size="14.00"> 4.05kB</text>
<text text-anchor="middle" x="978.5" y="-703.8" font-family="Times,serif" font-size="14.00"> (inline)</text>
</a>
</g>
</g>
<!-- N7 -->
<g id="node7" class="node">
<title>N7</title>
<g id="a_node7"><a xlink:title="runtime.mstart (9.04kB)">
<polygon fill="#eddcd5" stroke="#b23700" points="672.5,-1274.5 571.5,-1274.5 571.5,-1238.5 672.5,-1238.5 672.5,-1274.5"/>
<text text-anchor="middle" x="622" y="-1263.6" font-family="Times,serif" font-size="8.00">runtime</text>
<text text-anchor="middle" x="622" y="-1254.6" font-family="Times,serif" font-size="8.00">mstart</text>
<text text-anchor="middle" x="622" y="-1245.6" font-family="Times,serif" font-size="8.00">0 of 9.04kB (28.72%)</text>
</a>
</g>
</g>
<!-- N21 -->
<g id="node21" class="node">
<title>N21</title>
<g id="a_node21"><a xlink:title="runtime.mstart0 (9.04kB)">
<polygon fill="#eddcd5" stroke="#b23700" points="672.5,-1147 571.5,-1147 571.5,-1111 672.5,-1111 672.5,-1147"/>
<text text-anchor="middle" x="622" y="-1136.1" font-family="Times,serif" font-size="8.00">runtime</text>
<text text-anchor="middle" x="622" y="-1127.1" font-family="Times,serif" font-size="8.00">mstart0</text>
<text text-anchor="middle" x="622" y="-1118.1" font-family="Times,serif" font-size="8.00">0 of 9.04kB (28.72%)</text>
</a>
</g>
</g>
<!-- N7&#45;&gt;N21 -->
<g id="edge15" class="edge">
<title>N7&#45;&gt;N21</title>
<g id="a_edge15"><a xlink:title="runtime.mstart &#45;&gt; runtime.mstart0 (9.04kB)">
<path fill="none" stroke="#b23700" stroke-width="2" d="M622,-1238.31C622,-1217.49 622,-1182.16 622,-1157.53"/>
<polygon fill="#b23700" stroke="#b23700" stroke-width="2" points="625.5,-1157.38 622,-1147.38 618.5,-1157.38 625.5,-1157.38"/>
</a>
</g>
<g id="a_edge15&#45;label"><a xlink:title="runtime.mstart &#45;&gt; runtime.mstart0 (9.04kB)">
<text text-anchor="middle" x="649.5" y="-1168.8" font-family="Times,serif" font-size="14.00"> 9.04kB</text>
</a>
</g>
</g>
<!-- N8 -->
<g id="node8" class="node">
<title>N8</title>
<g id="a_node8"><a xlink:title="runtime.mcall (8.73kB)">
<polygon fill="#edddd5" stroke="#b23900" points="791.5,-1147 690.5,-1147 690.5,-1111 791.5,-1111 791.5,-1147"/>
<text text-anchor="middle" x="741" y="-1136.1" font-family="Times,serif" font-size="8.00">runtime</text>
<text text-anchor="middle" x="741" y="-1127.1" font-family="Times,serif" font-size="8.00">mcall</text>
<text text-anchor="middle" x="741" y="-1118.1" font-family="Times,serif" font-size="8.00">0 of 8.73kB (27.72%)</text>
</a>
</g>
</g>
<!-- N26 -->
<g id="node26" class="node">
<title>N26</title>
<g id="a_node26"><a xlink:title="runtime.park_m (8.73kB)">
<polygon fill="#edddd5" stroke="#b23900" points="791.5,-1060 690.5,-1060 690.5,-1024 791.5,-1024 791.5,-1060"/>
<text text-anchor="middle" x="741" y="-1049.1" font-family="Times,serif" font-size="8.00">runtime</text>
<text text-anchor="middle" x="741" y="-1040.1" font-family="Times,serif" font-size="8.00">park_m</text>
<text text-anchor="middle" x="741" y="-1031.1" font-family="Times,serif" font-size="8.00">0 of 8.73kB (27.72%)</text>
</a>
</g>
</g>
<!-- N8&#45;&gt;N26 -->
<g id="edge18" class="edge">
<title>N8&#45;&gt;N26</title>
<g id="a_edge18"><a xlink:title="runtime.mcall &#45;&gt; runtime.park_m (8.73kB)">
<path fill="none" stroke="#b23900" stroke-width="2" d="M741,-1110.8C741,-1099.16 741,-1083.55 741,-1070.24"/>
<polygon fill="#b23900" stroke="#b23900" stroke-width="2" points="744.5,-1070.18 741,-1060.18 737.5,-1070.18 744.5,-1070.18"/>
</a>
</g>
<g id="a_edge18&#45;label"><a xlink:title="runtime.mcall &#45;&gt; runtime.park_m (8.73kB)">
<text text-anchor="middle" x="768.5" y="-1081.8" font-family="Times,serif" font-size="14.00"> 8.73kB</text>
</a>
</g>
</g>
<!-- N9 -->
<g id="node9" class="node">
<title>N9</title>
<g id="a_node9"><a xlink:title="regexp/syntax.(*parser).newRegexp (4.05kB)">
<polygon fill="#ede4dd" stroke="#b2743f" points="1128.5,-303 969.5,-303 969.5,-219 1128.5,-219 1128.5,-303"/>
<text text-anchor="middle" x="1049" y="-285.4" font-family="Times,serif" font-size="17.00">syntax</text>
<text text-anchor="middle" x="1049" y="-266.4" font-family="Times,serif" font-size="17.00">(*parser)</text>
<text text-anchor="middle" x="1049" y="-247.4" font-family="Times,serif" font-size="17.00">newRegexp</text>
<text text-anchor="middle" x="1049" y="-228.4" font-family="Times,serif" font-size="17.00">4.05kB (12.88%)</text>
</a>
</g>
</g>
<!-- NN9_0 -->
<g id="NN9_0" class="node">
<title>NN9_0</title>
<g id="a_NN9_0"><a xlink:title="4.05kB">
<polygon fill="#f8f8f8" stroke="black" points="1076,-143.5 1026,-143.5 1022,-139.5 1022,-107.5 1072,-107.5 1076,-111.5 1076,-143.5"/>
<polyline fill="none" stroke="black" points="1072,-139.5 1022,-139.5 "/>
<polyline fill="none" stroke="black" points="1072,-139.5 1072,-107.5 "/>
<polyline fill="none" stroke="black" points="1072,-139.5 1076,-143.5 "/>
<text text-anchor="middle" x="1049" y="-123.6" font-family="Times,serif" font-size="8.00">112B</text>
</a>
</g>
</g>
<!-- N9&#45;&gt;NN9_0 -->
<g id="edge4" class="edge">
<title>N9&#45;&gt;NN9_0</title>
<g id="a_edge4"><a xlink:title="4.05kB">
<path fill="none" stroke="black" d="M1049,-218.86C1049,-197.72 1049,-172.55 1049,-153.83"/>
<polygon fill="black" stroke="black" points="1052.5,-153.63 1049,-143.63 1045.5,-153.63 1052.5,-153.63"/>
</a>
</g>
<g id="a_edge4&#45;label"><a xlink:title="4.05kB">
<text text-anchor="middle" x="1076.5" y="-185.8" font-family="Times,serif" font-size="14.00"> 4.05kB</text>
</a>
</g>
</g>
<!-- N10 -->
<g id="node10" class="node">
<title>N10</title>
<g id="a_node10"><a xlink:title="runtime.systemstack (4.21kB)">
<polygon fill="#ede4dd" stroke="#b2713b" points="472.5,-591 371.5,-591 371.5,-555 472.5,-555 472.5,-591"/>
<text text-anchor="middle" x="422" y="-580.1" font-family="Times,serif" font-size="8.00">runtime</text>
<text text-anchor="middle" x="422" y="-571.1" font-family="Times,serif" font-size="8.00">systemstack</text>
<text text-anchor="middle" x="422" y="-562.1" font-family="Times,serif" font-size="8.00">0 of 4.21kB (13.36%)</text>
</a>
</g>
</g>
<!-- N24 -->
<g id="node24" class="node">
<title>N24</title>
<g id="a_node24"><a xlink:title="runtime.newproc.func1 (4.21kB)">
<polygon fill="#ede4dd" stroke="#b2713b" points="472.5,-451 371.5,-451 371.5,-407 472.5,-407 472.5,-451"/>
<text text-anchor="middle" x="422" y="-440.6" font-family="Times,serif" font-size="8.00">runtime</text>
<text text-anchor="middle" x="422" y="-431.6" font-family="Times,serif" font-size="8.00">newproc</text>
<text text-anchor="middle" x="422" y="-422.6" font-family="Times,serif" font-size="8.00">func1</text>
<text text-anchor="middle" x="422" y="-413.6" font-family="Times,serif" font-size="8.00">0 of 4.21kB (13.36%)</text>
</a>
</g>
</g>
<!-- N10&#45;&gt;N24 -->
<g id="edge27" class="edge">
<title>N10&#45;&gt;N24</title>
<g id="a_edge27"><a xlink:title="runtime.systemstack &#45;&gt; runtime.newproc.func1 (4.21kB)">
<path fill="none" stroke="#b2713b" d="M422,-554.87C422,-531.85 422,-490.49 422,-461.71"/>
<polygon fill="#b2713b" stroke="#b2713b" points="425.5,-461.35 422,-451.35 418.5,-461.35 425.5,-461.35"/>
</a>
</g>
<g id="a_edge27&#45;label"><a xlink:title="runtime.systemstack &#45;&gt; runtime.newproc.func1 (4.21kB)">
<text text-anchor="middle" x="449.5" y="-514.3" font-family="Times,serif" font-size="14.00"> 4.21kB</text>
</a>
</g>
</g>
<!-- N11 -->
<g id="node11" class="node">
<title>N11</title>
<g id="a_node11"><a xlink:title="github.com/google/pprof/profile.init (9.51kB)">
<polygon fill="#eddcd5" stroke="#b23500" points="913.5,-1060 812.5,-1060 812.5,-1024 913.5,-1024 913.5,-1060"/>
<text text-anchor="middle" x="863" y="-1049.1" font-family="Times,serif" font-size="8.00">profile</text>
<text text-anchor="middle" x="863" y="-1040.1" font-family="Times,serif" font-size="8.00">init</text>
<text text-anchor="middle" x="863" y="-1031.1" font-family="Times,serif" font-size="8.00">0 of 9.51kB (30.20%)</text>
</a>
</g>
</g>
<!-- N13 -->
<g id="node13" class="node">
<title>N13</title>
<g id="a_node13"><a xlink:title="regexp.MustCompile (9.51kB)">
<polygon fill="#eddcd5" stroke="#b23500" points="913.5,-973 812.5,-973 812.5,-937 913.5,-937 913.5,-973"/>
<text text-anchor="middle" x="863" y="-962.1" font-family="Times,serif" font-size="8.00">regexp</text>
<text text-anchor="middle" x="863" y="-953.1" font-family="Times,serif" font-size="8.00">MustCompile</text>
<text text-anchor="middle" x="863" y="-944.1" font-family="Times,serif" font-size="8.00">0 of 9.51kB (30.20%)</text>
</a>
</g>
</g>
<!-- N11&#45;&gt;N13 -->
<g id="edge10" class="edge">
<title>N11&#45;&gt;N13</title>
<g id="a_edge10"><a xlink:title="github.com/google/pprof/profile.init &#45;&gt; regexp.MustCompile (9.51kB)">
<path fill="none" stroke="#b23500" stroke-width="2" d="M863,-1023.8C863,-1012.16 863,-996.55 863,-983.24"/>
<polygon fill="#b23500" stroke="#b23500" stroke-width="2" points="866.5,-983.18 863,-973.18 859.5,-983.18 866.5,-983.18"/>
</a>
</g>
<g id="a_edge10&#45;label"><a xlink:title="github.com/google/pprof/profile.init &#45;&gt; regexp.MustCompile (9.51kB)">
<text text-anchor="middle" x="890.5" y="-994.8" font-family="Times,serif" font-size="14.00"> 9.51kB</text>
</a>
</g>
</g>
<!-- N12 -->
<g id="node12" class="node">
<title>N12</title>
<g id="a_node12"><a xlink:title="regexp.Compile (9.51kB)">
<polygon fill="#eddcd5" stroke="#b23500" points="913.5,-871 812.5,-871 812.5,-835 913.5,-835 913.5,-871"/>
<text text-anchor="middle" x="863" y="-860.1" font-family="Times,serif" font-size="8.00">regexp</text>
<text text-anchor="middle" x="863" y="-851.1" font-family="Times,serif" font-size="8.00">Compile</text>
<text text-anchor="middle" x="863" y="-842.1" font-family="Times,serif" font-size="8.00">0 of 9.51kB (30.20%)</text>
</a>
</g>
</g>
<!-- N12&#45;&gt;N6 -->
<g id="edge11" class="edge">
<title>N12&#45;&gt;N6</title>
<g id="a_edge11"><a xlink:title="regexp.Compile &#45;&gt; regexp.compile (9.51kB)">
<path fill="none" stroke="#b23500" stroke-width="2" d="M863,-834.8C863,-823.16 863,-807.55 863,-794.24"/>
<polygon fill="#b23500" stroke="#b23500" stroke-width="2" points="866.5,-794.18 863,-784.18 859.5,-794.18 866.5,-794.18"/>
</a>
</g>
<g id="a_edge11&#45;label"><a xlink:title="regexp.Compile &#45;&gt; regexp.compile (9.51kB)">
<text text-anchor="middle" x="890.5" y="-805.8" font-family="Times,serif" font-size="14.00"> 9.51kB</text>
</a>
</g>
</g>
<!-- N13&#45;&gt;N12 -->
<g id="edge12" class="edge">
<title>N13&#45;&gt;N12</title>
<g id="a_edge12"><a xlink:title="regexp.MustCompile &#45;&gt; regexp.Compile (9.51kB)">
<path fill="none" stroke="#b23500" stroke-width="2" d="M863,-936.58C863,-921.38 863,-899.07 863,-881.46"/>
<polygon fill="#b23500" stroke="#b23500" stroke-width="2" points="866.5,-881.22 863,-871.22 859.5,-881.22 866.5,-881.22"/>
</a>
</g>
<g id="a_edge12&#45;label"><a xlink:title="regexp.MustCompile &#45;&gt; regexp.Compile (9.51kB)">
<text text-anchor="middle" x="890.5" y="-907.8" font-family="Times,serif" font-size="14.00"> 9.51kB</text>
<text text-anchor="middle" x="890.5" y="-892.8" font-family="Times,serif" font-size="14.00"> (inline)</text>
</a>
</g>
</g>
<!-- N14 -->
<g id="node14" class="node">
<title>N14</title>
<g id="a_node14"><a xlink:title="regexp/syntax.(*compiler).cap (5.45kB)">
<polygon fill="#ede1d8" stroke="#b25717" points="913.5,-451 812.5,-451 812.5,-407 913.5,-407 913.5,-451"/>
<text text-anchor="middle" x="863" y="-440.6" font-family="Times,serif" font-size="8.00">syntax</text>
<text text-anchor="middle" x="863" y="-431.6" font-family="Times,serif" font-size="8.00">(*compiler)</text>
<text text-anchor="middle" x="863" y="-422.6" font-family="Times,serif" font-size="8.00">cap</text>
<text text-anchor="middle" x="863" y="-413.6" font-family="Times,serif" font-size="8.00">0 of 5.45kB (17.32%)</text>
</a>
</g>
</g>
<!-- N14&#45;&gt;N4 -->
<g id="edge21" class="edge">
<title>N14&#45;&gt;N4</title>
<g id="a_edge21"><a xlink:title="regexp/syntax.(*compiler).cap &#45;&gt; regexp/syntax.(*compiler).inst (5.45kB)">
<path fill="none" stroke="#b25717" d="M863,-406.98C863,-384.56 863,-348.13 863,-317.4"/>
<polygon fill="#b25717" stroke="#b25717" points="866.5,-317.22 863,-307.22 859.5,-317.22 866.5,-317.22"/>
</a>
</g>
<g id="a_edge21&#45;label"><a xlink:title="regexp/syntax.(*compiler).cap &#45;&gt; regexp/syntax.(*compiler).inst (5.45kB)">
<text text-anchor="middle" x="890.5" y="-343.8" font-family="Times,serif" font-size="14.00"> 5.45kB</text>
<text text-anchor="middle" x="890.5" y="-328.8" font-family="Times,serif" font-size="14.00"> (inline)</text>
</a>
</g>
</g>
<!-- N15 -->
<g id="node15" class="node">
<title>N15</title>
<g id="a_node15"><a xlink:title="regexp/syntax.(*compiler).compile (5.45kB)">
<polygon fill="#ede1d8" stroke="#b25717" points="913.5,-595 812.5,-595 812.5,-551 913.5,-551 913.5,-595"/>
<text text-anchor="middle" x="863" y="-584.6" font-family="Times,serif" font-size="8.00">syntax</text>
<text text-anchor="middle" x="863" y="-575.6" font-family="Times,serif" font-size="8.00">(*compiler)</text>
<text text-anchor="middle" x="863" y="-566.6" font-family="Times,serif" font-size="8.00">compile</text>
<text text-anchor="middle" x="863" y="-557.6" font-family="Times,serif" font-size="8.00">0 of 5.45kB (17.32%)</text>
</a>
</g>
</g>
<!-- N15&#45;&gt;N14 -->
<g id="edge22" class="edge">
<title>N15&#45;&gt;N14</title>
<g id="a_edge22"><a xlink:title="regexp/syntax.(*compiler).compile &#45;&gt; regexp/syntax.(*compiler).cap (5.45kB)">
<path fill="none" stroke="#b25717" d="M863,-550.74C863,-527.11 863,-488.7 863,-461.56"/>
<polygon fill="#b25717" stroke="#b25717" points="866.5,-461.4 863,-451.4 859.5,-461.4 866.5,-461.4"/>
</a>
</g>
<g id="a_edge22&#45;label"><a xlink:title="regexp/syntax.(*compiler).compile &#45;&gt; regexp/syntax.(*compiler).cap (5.45kB)">
<text text-anchor="middle" x="890.5" y="-521.8" font-family="Times,serif" font-size="14.00"> 5.45kB</text>
<text text-anchor="middle" x="890.5" y="-506.8" font-family="Times,serif" font-size="14.00"> (inline)</text>
</a>
</g>
</g>
<!-- N16 -->
<g id="node16" class="node">
<title>N16</title>
<g id="a_node16"><a xlink:title="regexp/syntax.(*parser).parseClass (4.05kB)">
<polygon fill="#ede4dd" stroke="#b2743f" points="1065.5,-451 964.5,-451 964.5,-407 1065.5,-407 1065.5,-451"/>
<text text-anchor="middle" x="1015" y="-440.6" font-family="Times,serif" font-size="8.00">syntax</text>
<text text-anchor="middle" x="1015" y="-431.6" font-family="Times,serif" font-size="8.00">(*parser)</text>
<text text-anchor="middle" x="1015" y="-422.6" font-family="Times,serif" font-size="8.00">parseClass</text>
<text text-anchor="middle" x="1015" y="-413.6" font-family="Times,serif" font-size="8.00">0 of 4.05kB (12.88%)</text>
</a>
</g>
</g>
<!-- N16&#45;&gt;N9 -->
<g id="edge29" class="edge">
<title>N16&#45;&gt;N9</title>
<g id="a_edge29"><a xlink:title="regexp/syntax.(*parser).parseClass &#45;&gt; regexp/syntax.(*parser).newRegexp (4.05kB)">
<path fill="none" stroke="#b2743f" d="M1019.31,-406.98C1024.11,-383.52 1032.06,-344.71 1038.52,-313.15"/>
<polygon fill="#b2743f" stroke="#b2743f" points="1041.99,-313.68 1040.56,-303.18 1035.13,-312.28 1041.99,-313.68"/>
</a>
</g>
<g id="a_edge29&#45;label"><a xlink:title="regexp/syntax.(*parser).parseClass &#45;&gt; regexp/syntax.(*parser).newRegexp (4.05kB)">
<text text-anchor="middle" x="1063.5" y="-343.8" font-family="Times,serif" font-size="14.00"> 4.05kB</text>
<text text-anchor="middle" x="1063.5" y="-328.8" font-family="Times,serif" font-size="14.00"> (inline)</text>
</a>
</g>
</g>
<!-- N17&#45;&gt;N15 -->
<g id="edge23" class="edge">
<title>N17&#45;&gt;N15</title>
<g id="a_edge23"><a xlink:title="regexp/syntax.Compile &#45;&gt; regexp/syntax.(*compiler).compile (5.45kB)">
<path fill="none" stroke="#b25717" d="M863,-645.84C863,-634.44 863,-619.13 863,-605.58"/>
<polygon fill="#b25717" stroke="#b25717" points="866.5,-605.19 863,-595.19 859.5,-605.19 866.5,-605.19"/>
</a>
</g>
<g id="a_edge23&#45;label"><a xlink:title="regexp/syntax.Compile &#45;&gt; regexp/syntax.(*compiler).compile (5.45kB)">
<text text-anchor="middle" x="890.5" y="-616.8" font-family="Times,serif" font-size="14.00"> 5.45kB</text>
</a>
</g>
</g>
<!-- N19 -->
<g id="node19" class="node">
<title>N19</title>
<g id="a_node19"><a xlink:title="regexp/syntax.parse (4.05kB)">
<polygon fill="#ede4dd" stroke="#b2743f" points="1032.5,-591 931.5,-591 931.5,-555 1032.5,-555 1032.5,-591"/>
<text text-anchor="middle" x="982" y="-580.1" font-family="Times,serif" font-size="8.00">syntax</text>
<text text-anchor="middle" x="982" y="-571.1" font-family="Times,serif" font-size="8.00">parse</text>
<text text-anchor="middle" x="982" y="-562.1" font-family="Times,serif" font-size="8.00">0 of 4.05kB (12.88%)</text>
</a>
</g>
</g>
<!-- N18&#45;&gt;N19 -->
<g id="edge30" class="edge">
<title>N18&#45;&gt;N19</title>
<g id="a_edge30"><a xlink:title="regexp/syntax.Parse &#45;&gt; regexp/syntax.parse (4.05kB)">
<path fill="none" stroke="#b2743f" d="M982,-645.84C982,-633.28 982,-615.98 982,-601.5"/>
<polygon fill="#b2743f" stroke="#b2743f" points="985.5,-601.11 982,-591.11 978.5,-601.11 985.5,-601.11"/>
</a>
</g>
<g id="a_edge30&#45;label"><a xlink:title="regexp/syntax.Parse &#45;&gt; regexp/syntax.parse (4.05kB)">
<text text-anchor="middle" x="1009.5" y="-616.8" font-family="Times,serif" font-size="14.00"> 4.05kB</text>
</a>
</g>
</g>
<!-- N19&#45;&gt;N16 -->
<g id="edge31" class="edge">
<title>N19&#45;&gt;N16</title>
<g id="a_edge31"><a xlink:title="regexp/syntax.parse &#45;&gt; regexp/syntax.(*parser).parseClass (4.05kB)">
<path fill="none" stroke="#b2743f" d="M985.98,-554.87C991.35,-531.75 1001.03,-490.12 1007.72,-461.33"/>
<polygon fill="#b2743f" stroke="#b2743f" points="1011.18,-461.89 1010.04,-451.35 1004.36,-460.3 1011.18,-461.89"/>
</a>
</g>
<g id="a_edge31&#45;label"><a xlink:title="regexp/syntax.parse &#45;&gt; regexp/syntax.(*parser).parseClass (4.05kB)">
<text text-anchor="middle" x="1024.5" y="-514.3" font-family="Times,serif" font-size="14.00"> 4.05kB</text>
</a>
</g>
</g>
<!-- N20&#45;&gt;N11 -->
<g id="edge13" class="edge">
<title>N20&#45;&gt;N11</title>
<g id="a_edge13"><a xlink:title="runtime.doInit &#45;&gt; github.com/google/pprof/profile.init (9.51kB)">
<path fill="none" stroke="#b23500" stroke-width="2" d="M863,-1110.8C863,-1099.16 863,-1083.55 863,-1070.24"/>
<polygon fill="#b23500" stroke="#b23500" stroke-width="2" points="866.5,-1070.18 863,-1060.18 859.5,-1070.18 866.5,-1070.18"/>
</a>
</g>
<g id="a_edge13&#45;label"><a xlink:title="runtime.doInit &#45;&gt; github.com/google/pprof/profile.init (9.51kB)">
<text text-anchor="middle" x="890.5" y="-1081.8" font-family="Times,serif" font-size="14.00"> 9.51kB</text>
</a>
</g>
</g>
<!-- N22 -->
<g id="node22" class="node">
<title>N22</title>
<g id="a_node22"><a xlink:title="runtime.mstart1 (9.04kB)">
<polygon fill="#eddcd5" stroke="#b23700" points="672.5,-1060 571.5,-1060 571.5,-1024 672.5,-1024 672.5,-1060"/>
<text text-anchor="middle" x="622" y="-1049.1" font-family="Times,serif" font-size="8.00">runtime</text>
<text text-anchor="middle" x="622" y="-1040.1" font-family="Times,serif" font-size="8.00">mstart1</text>
<text text-anchor="middle" x="622" y="-1031.1" font-family="Times,serif" font-size="8.00">0 of 9.04kB (28.72%)</text>
</a>
</g>
</g>
<!-- N21&#45;&gt;N22 -->
<g id="edge16" class="edge">
<title>N21&#45;&gt;N22</title>
<g id="a_edge16"><a xlink:title="runtime.mstart0 &#45;&gt; runtime.mstart1 (9.04kB)">
<path fill="none" stroke="#b23700" stroke-width="2" d="M622,-1110.8C622,-1099.16 622,-1083.55 622,-1070.24"/>
<polygon fill="#b23700" stroke="#b23700" stroke-width="2" points="625.5,-1070.18 622,-1060.18 618.5,-1070.18 625.5,-1070.18"/>
</a>
</g>
<g id="a_edge16&#45;label"><a xlink:title="runtime.mstart0 &#45;&gt; runtime.mstart1 (9.04kB)">
<text text-anchor="middle" x="649.5" y="-1081.8" font-family="Times,serif" font-size="14.00"> 9.04kB</text>
</a>
</g>
</g>
<!-- N22&#45;&gt;N3 -->
<g id="edge17" class="edge">
<title>N22&#45;&gt;N3</title>
<g id="a_edge17"><a xlink:title="runtime.mstart1 &#45;&gt; runtime.schedule (9.04kB)">
<path fill="none" stroke="#b23700" stroke-width="2" d="M622,-1023.8C622,-1012.16 622,-996.55 622,-983.24"/>
<polygon fill="#b23700" stroke="#b23700" stroke-width="2" points="625.5,-983.18 622,-973.18 618.5,-983.18 625.5,-983.18"/>
</a>
</g>
<g id="a_edge17&#45;label"><a xlink:title="runtime.mstart1 &#45;&gt; runtime.schedule (9.04kB)">
<text text-anchor="middle" x="649.5" y="-994.8" font-family="Times,serif" font-size="14.00"> 9.04kB</text>
</a>
</g>
</g>
<!-- N23 -->
<g id="node23" class="node">
<title>N23</title>
<g id="a_node23"><a xlink:title="runtime.newm (17.77kB)">
<polygon fill="#edd9d5" stroke="#b21c00" points="675.5,-591 568.5,-591 568.5,-555 675.5,-555 675.5,-591"/>
<text text-anchor="middle" x="622" y="-580.1" font-family="Times,serif" font-size="8.00">runtime</text>
<text text-anchor="middle" x="622" y="-571.1" font-family="Times,serif" font-size="8.00">newm</text>
<text text-anchor="middle" x="622" y="-562.1" font-family="Times,serif" font-size="8.00">0 of 17.77kB (56.44%)</text>
</a>
</g>
</g>
<!-- N23&#45;&gt;N1 -->
<g id="edge5" class="edge">
<title>N23&#45;&gt;N1</title>
<g id="a_edge5"><a xlink:title="runtime.newm &#45;&gt; runtime.allocm (17.77kB)">
<path fill="none" stroke="#b21c00" stroke-width="3" d="M622,-554.87C622,-539.9 622,-517.18 622,-495.21"/>
<polygon fill="#b21c00" stroke="#b21c00" stroke-width="3" points="625.5,-495.2 622,-485.2 618.5,-495.2 625.5,-495.2"/>
</a>
</g>
<g id="a_edge5&#45;label"><a xlink:title="runtime.newm &#45;&gt; runtime.allocm (17.77kB)">
<text text-anchor="middle" x="654" y="-514.3" font-family="Times,serif" font-size="14.00"> 17.77kB</text>
</a>
</g>
</g>
<!-- N25 -->
<g id="node25" class="node">
<title>N25</title>
<g id="a_node25"><a xlink:title="runtime.newproc1 (4.21kB)">
<polygon fill="#ede4dd" stroke="#b2713b" points="550.5,-279 449.5,-279 449.5,-243 550.5,-243 550.5,-279"/>
<text text-anchor="middle" x="500" y="-268.1" font-family="Times,serif" font-size="8.00">runtime</text>
<text text-anchor="middle" x="500" y="-259.1" font-family="Times,serif" font-size="8.00">newproc1</text>
<text text-anchor="middle" x="500" y="-250.1" font-family="Times,serif" font-size="8.00">0 of 4.21kB (13.36%)</text>
</a>
</g>
</g>
<!-- N24&#45;&gt;N25 -->
<g id="edge25" class="edge">
<title>N24&#45;&gt;N25</title>
<g id="a_edge25"><a xlink:title="runtime.newproc.func1 &#45;&gt; runtime.newproc1 (4.21kB)">
<path fill="none" stroke="#b2713b" d="M431.88,-406.98C446,-376.93 471.94,-321.72 487.42,-288.78"/>
<polygon fill="#b2713b" stroke="#b2713b" points="490.77,-289.87 491.86,-279.33 484.44,-286.89 490.77,-289.87"/>
</a>
</g>
<g id="a_edge25&#45;label"><a xlink:title="runtime.newproc.func1 &#45;&gt; runtime.newproc1 (4.21kB)">
<text text-anchor="middle" x="498.5" y="-336.3" font-family="Times,serif" font-size="14.00"> 4.21kB</text>
</a>
</g>
</g>
<!-- N25&#45;&gt;N2 -->
<g id="edge26" class="edge">
<title>N25&#45;&gt;N2</title>
<g id="a_edge26"><a xlink:title="runtime.newproc1 &#45;&gt; runtime.malg (4.21kB)">
<path fill="none" stroke="#b2713b" d="M521.36,-242.82C543.95,-224.66 580.49,-195.27 611.19,-170.58"/>
<polygon fill="#b2713b" stroke="#b2713b" points="613.67,-173.08 619.27,-164.08 609.28,-167.62 613.67,-173.08"/>
</a>
</g>
<g id="a_edge26&#45;label"><a xlink:title="runtime.newproc1 &#45;&gt; runtime.malg (4.21kB)">
<text text-anchor="middle" x="620.5" y="-185.8" font-family="Times,serif" font-size="14.00"> 4.21kB</text>
</a>
</g>
</g>
<!-- N26&#45;&gt;N3 -->
<g id="edge19" class="edge">
<title>N26&#45;&gt;N3</title>
<g id="a_edge19"><a xlink:title="runtime.park_m &#45;&gt; runtime.schedule (8.73kB)">
<path fill="none" stroke="#b23900" stroke-width="2" d="M722.17,-1023.98C710.64,-1013.91 695.4,-1001.17 681,-991 674.91,-986.7 668.28,-982.41 661.73,-978.39"/>
<polygon fill="#b23900" stroke="#b23900" stroke-width="2" points="663.28,-975.23 652.9,-973.08 659.67,-981.23 663.28,-975.23"/>
</a>
</g>
<g id="a_edge19&#45;label"><a xlink:title="runtime.park_m &#45;&gt; runtime.schedule (8.73kB)">
<text text-anchor="middle" x="726.5" y="-994.8" font-family="Times,serif" font-size="14.00"> 8.73kB</text>
</a>
</g>
</g>
<!-- N29 -->
<g id="node29" class="node">
<title>N29</title>
<g id="a_node29"><a xlink:title="runtime.wakep (17.77kB)">
<polygon fill="#edd9d5" stroke="#b21c00" points="675.5,-784 568.5,-784 568.5,-748 675.5,-748 675.5,-784"/>
<text text-anchor="middle" x="622" y="-773.1" font-family="Times,serif" font-size="8.00">runtime</text>
<text text-anchor="middle" x="622" y="-764.1" font-family="Times,serif" font-size="8.00">wakep</text>
<text text-anchor="middle" x="622" y="-755.1" font-family="Times,serif" font-size="8.00">0 of 17.77kB (56.44%)</text>
</a>
</g>
</g>
<!-- N27&#45;&gt;N29 -->
<g id="edge6" class="edge">
<title>N27&#45;&gt;N29</title>
<g id="a_edge6"><a xlink:title="runtime.resetspinning &#45;&gt; runtime.wakep (17.77kB)">
<path fill="none" stroke="#b21c00" stroke-width="3" d="M622,-834.8C622,-823.16 622,-807.55 622,-794.24"/>
<polygon fill="#b21c00" stroke="#b21c00" stroke-width="3" points="625.5,-794.18 622,-784.18 618.5,-794.18 625.5,-794.18"/>
</a>
</g>
<g id="a_edge6&#45;label"><a xlink:title="runtime.resetspinning &#45;&gt; runtime.wakep (17.77kB)">
<text text-anchor="middle" x="654" y="-805.8" font-family="Times,serif" font-size="14.00"> 17.77kB</text>
</a>
</g>
</g>
<!-- N28 -->
<g id="node28" class="node">
<title>N28</title>
<g id="a_node28"><a xlink:title="runtime.startm (17.77kB)">
<polygon fill="#edd9d5" stroke="#b21c00" points="675.5,-682 568.5,-682 568.5,-646 675.5,-646 675.5,-682"/>
<text text-anchor="middle" x="622" y="-671.1" font-family="Times,serif" font-size="8.00">runtime</text>
<text text-anchor="middle" x="622" y="-662.1" font-family="Times,serif" font-size="8.00">startm</text>
<text text-anchor="middle" x="622" y="-653.1" font-family="Times,serif" font-size="8.00">0 of 17.77kB (56.44%)</text>
</a>
</g>
</g>
<!-- N28&#45;&gt;N23 -->
<g id="edge8" class="edge">
<title>N28&#45;&gt;N23</title>
<g id="a_edge8"><a xlink:title="runtime.startm &#45;&gt; runtime.newm (17.77kB)">
<path fill="none" stroke="#b21c00" stroke-width="3" d="M622,-645.84C622,-633.28 622,-615.98 622,-601.5"/>
<polygon fill="#b21c00" stroke="#b21c00" stroke-width="3" points="625.5,-601.11 622,-591.11 618.5,-601.11 625.5,-601.11"/>
</a>
</g>
<g id="a_edge8&#45;label"><a xlink:title="runtime.startm &#45;&gt; runtime.newm (17.77kB)">
<text text-anchor="middle" x="654" y="-616.8" font-family="Times,serif" font-size="14.00"> 17.77kB</text>
</a>
</g>
</g>
<!-- N29&#45;&gt;N28 -->
<g id="edge9" class="edge">
<title>N29&#45;&gt;N28</title>
<g id="a_edge9"><a xlink:title="runtime.wakep &#45;&gt; runtime.startm (17.77kB)">
<path fill="none" stroke="#b21c00" stroke-width="3" d="M622,-747.58C622,-732.38 622,-710.07 622,-692.46"/>
<polygon fill="#b21c00" stroke="#b21c00" stroke-width="3" points="625.5,-692.22 622,-682.22 618.5,-692.22 625.5,-692.22"/>
</a>
</g>
<g id="a_edge9&#45;label"><a xlink:title="runtime.wakep &#45;&gt; runtime.startm (17.77kB)">
<text text-anchor="middle" x="654" y="-711.3" font-family="Times,serif" font-size="14.00"> 17.77kB</text>
</a>
</g>
</g>
</g>
</g></svg>
